<svg id="discord.ts" data-name="discord.ts" xmlns="http://www.w3.org/2000/svg" viewBox="0 0 4954.45 639.9"><defs><style>.cls-1{fill:#5865f2;}</style></defs><path class="cls-1" d="M155.43,788.84V177.75H383.12c99,0,178.2,27,236.7,80.1,58.5,54,88.2,128.7,88.2,225s-29.7,171-88.2,225-137.7,81-236.7,81ZM303.92,660.15h79.2c108,0,171.9-68.4,171.9-177.3s-63.9-175.5-171.9-175.5h-79.2Z" transform="translate(-155.43 -163.35)"/><path class="cls-1" d="M780,788.84V177.75h148.5V788.84Z" transform="translate(-155.43 -163.35)"/><path class="cls-1" d="M1016.71,761.84V625.05h7.2c65.7,29.7,136.8,44.1,213.29,44.1,51.3,0,96.3-17.1,96.3-55.8,0-23.4-27-41.4-80.1-54L1158,536c-103.49-26.1-155.69-84.6-155.69-175.5,0-64.8,24.3-113.4,73.8-146.7,48.6-32.4,109.79-48.6,184.49-48.6,71.1,0,134.1,13.5,189,39.6v136.8h-8.1c-57.6-28.8-123.3-43.2-196.2-43.2-49.5,0-93.59,16.2-93.59,54.9,4.5,33.3,34.19,45.9,72,54l96.3,23.4c99.9,24.3,162.9,82.8,162.9,175.5,0,64.8-24.3,113.39-73.8,146.69s-112.5,49.5-187.2,49.5Q1108.51,802.34,1016.71,761.84Z" transform="translate(-155.43 -163.35)"/><path class="cls-1" d="M1609.8,713.25c-58.5-60.3-88.2-136.8-88.2-230.4s29.7-170.1,88.2-230.4c58.5-59.4,135-89.1,228.6-89.1,78.3,0,140.4,13.5,187.2,40.5v137.7h-8.1c-40.5-27.9-95.4-41.4-163.8-41.4-112.5,0-179.1,70.2-179.1,182.7,0,114.3,66.6,183.6,179.1,183.6,69.3,0,124.2-13.5,163.8-41.4h8.1v137.7c-46.8,27-108.9,40.5-187.2,40.5C1744.8,803.25,1668.3,773.54,1609.8,713.25Z" transform="translate(-155.43 -163.35)"/><path class="cls-1" d="M2150.7,713.25c-58.5-60.3-88.2-136.8-88.2-230.4s29.7-170.1,88.2-230.4c58.5-59.4,135-89.1,228.6-89.1,92.7,0,169.2,29.7,227.7,89.1,58.5,60.3,88.2,136.8,88.2,230.4S2665.5,653,2607,713.25s-135,90-227.7,90C2285.7,803.25,2209.2,773.54,2150.7,713.25Zm228.6-46.8c51.3,0,90.9-17.1,119.7-51.3s43.2-78.3,43.2-132.3c0-108-61.2-182.7-162.9-182.7-103.5,0-163.8,74.7-163.8,182.7,0,53.1,14.4,96.3,44.1,131.4C2288.4,649.35,2328,666.45,2379.3,666.45Z" transform="translate(-155.43 -163.35)"/><path class="cls-1" d="M3083.09,552.15l217.8,228.6v8.09h-178.2l-207-242.09V788.84h-148.5V177.75h276.3c143.1,0,237.6,64.8,237.6,193.5,0,52.2-18,95.4-53.1,129.6-36,34.2-81,51.3-134.1,51.3Zm-167.4-103.5h127.8c49.5,0,85.5-27,85.5-72.9s-35.1-72-85.5-72h-127.8Z" transform="translate(-155.43 -163.35)"/><path class="cls-1" d="M3360.29,788.84V177.75H3588c99,0,178.2,27,236.7,80.1,58.5,54,88.2,128.7,88.2,225s-29.7,171-88.2,225-137.7,81-236.7,81Zm148.5-128.69H3588c108,0,171.9-68.4,171.9-177.3S3696,307.35,3588,307.35h-79.2Z" transform="translate(-155.43 -163.35)"/><path class="cls-1" d="M3937.18,706c0-51.29,40.5-91.79,91.8-91.79,50.4,0,90.9,40.5,90.9,91.79a90.64,90.64,0,0,1-90.9,90.9C3977.68,796.94,3937.18,756.45,3937.18,706Z" transform="translate(-155.43 -163.35)"/><path class="cls-1" d="M4261.19,788.84V307.35H4074V177.75h523.79v129.6h-188.1V788.84Z" transform="translate(-155.43 -163.35)"/><path class="cls-1" d="M4643.68,761.84V625.05h7.2c65.7,29.7,136.8,44.1,213.3,44.1,51.3,0,96.3-17.1,96.3-55.8,0-23.4-27-41.4-80.1-54L4785,536c-103.5-26.1-155.7-84.6-155.7-175.5,0-64.8,24.3-113.4,73.8-146.7,48.6-32.4,109.8-48.6,184.5-48.6,71.1,0,134.1,13.5,189,39.6v136.8h-8.1c-57.6-28.8-123.3-43.2-196.2-43.2-49.5,0-93.6,16.2-93.6,54.9,4.5,33.3,34.2,45.9,72,54l96.3,23.4c99.9,24.3,162.9,82.8,162.9,175.5,0,64.8-24.3,113.39-73.8,146.69s-112.5,49.5-187.2,49.5Q4735.48,802.34,4643.68,761.84Z" transform="translate(-155.43 -163.35)"/></svg>