<svg id="discordx" xmlns="http://www.w3.org/2000/svg" viewBox="0 0 2933.48 447.38"><defs><style>.cls-1{fill:#5865f2;}</style></defs><path class="cls-1" d="M0,437.28V10.1H154.6q102.21,0,162.16,56.16t59.95,156.48q0,100.33-59.95,157.44T154.6,437.28Zm88.34-77H154.6q61.83,0,96.85-37.23t35-100.33q0-63.09-35-99.38T154.6,87.08H88.34Z"/><path class="cls-1" d="M422.76,437.28V10.1H511.1V437.28Z"/><path class="cls-1" d="M709.23,446.75q-79.51,0-143.24-32.18v-81.4h5q65.63,33.45,147.65,33.44,31.54,0,54.9-12t23.35-37.23q0-18.93-17-29.34t-44.8-18l-68.78-17Q559,226.53,559.05,133.14q0-65.61,49.22-99.07T731.94.63q75.72,0,132.51,31.55v81.4h-5q-60-32.81-136.3-32.81-30.29,0-52.69,12t-22.4,36q0,33.47,57.42,47.33l68.15,17q51.74,13.24,82,43.22t30.29,77.3q0,44.17-25.24,75.09t-64,44.48Q757.82,446.74,709.23,446.75Z"/><path class="cls-1" d="M1123.16,447.38q-96.54,0-156.17-63.1T907.36,222.74q0-97.8,59.63-160.27T1123.16,0q82,0,130.62,32.18v82h-4.42q-21.45-15.76-53.95-24.29A249.59,249.59,0,0,0,1132,81.4q-63.75,0-99.07,38.17T997.59,222.74q0,65.64,35.34,104.43T1132,366a249.59,249.59,0,0,0,63.41-8.52q32.49-8.52,53.95-24.29h4.42v82Q1205.18,447.38,1123.16,447.38Z"/><path class="cls-1" d="M1644.05,384.28q-59.64,63.11-156.18,63.1t-156.17-63.1q-59.62-63.09-59.63-161.54,0-97.8,59.63-160.27T1487.87,0q96.56,0,156.18,62.15t59.63,160.59Q1703.68,321.19,1644.05,384.28ZM1487.87,366q59.31,0,92.45-40.07t33.12-103.17q0-63.09-33.12-102.22T1487.87,81.4q-59.31,0-92.44,39.12T1362.3,222.74q0,61.86,33.45,102.54T1487.87,366Z"/><path class="cls-1" d="M1946.6,266.91l166,165.32v5H2005.29L1838.07,257.45V437.28h-88.34V10.1h186.15q73.18,0,118,33.12t44.8,98.12q0,56.79-39.12,91.18t-98.43,34.39Zm-108.53-64.36h97.81q31.55,0,52-15.14t20.51-43.54q0-28.4-20.82-43.86t-51.74-15.46h-97.81Z"/><path class="cls-1" d="M2147.89,437.28V10.1h154.6q102.21,0,162.16,56.16t59.95,156.48q0,100.33-59.95,157.44t-162.16,57.1Zm88.34-77h66.26q61.83,0,96.85-37.23t35-100.33q0-63.09-35-99.38t-96.85-36.28h-66.26Z"/><path class="cls-1" d="M2530.9,437.28v-5l147-209.49L2537.21,14.51V10.1h102.22l92.13,145.13L2824.32,10.1h102.85v4.41l-142,208.23,148.28,209.49v5H2830.63l-99.07-147-98.44,147Z"/></svg>